<svg width="100" height="100" viewBox="0 0 100 100" fill="none" xmlns="http://www.w3.org/2000/svg">
  <circle cx="50" cy="50" r="48" stroke="white" stroke-width="2" stroke-opacity="0.1"/>
  <path d="M50 35C58.2843 35 65 28.2843 65 20C65 11.7157 58.2843 5 50 5C41.7157 5 35 11.7157 35 20C35 28.2843 41.7157 35 50 35Z" fill="white" fill-opacity="0.9"/>
  <path d="M50 40C33.4315 40 20 53.4315 20 70C20 78.2843 23.3579 85.7843 28.7868 91.2132C34.2157 96.6421 41.7157 100 50 100C58.2843 100 65.7843 96.6421 71.2132 91.2132C76.6421 85.7843 80 78.2843 80 70C80 53.4315 66.5685 40 50 40Z" fill="white" fill-opacity="0.8"/>
  <path d="M30 20C30 31.0457 38.9543 40 50 40C61.0457 40 70 31.0457 70 20H30Z" fill="white"/>
</svg>
